<svg width="26" height="26" viewBox="0 0 26 26" fill="none" xmlns="http://www.w3.org/2000/svg">
<path fill-rule="evenodd" clip-rule="evenodd" d="M8.66659 19.5C8.66659 21.8932 10.6067 23.8333 12.9999 23.8333H18.9583C21.6507 23.8333 23.8333 21.6507 23.8333 18.9583V7.04167C23.8333 4.34926 21.6507 2.16667 18.9583 2.16667H12.9999C10.6067 2.16667 8.66659 4.10681 8.66659 6.5V7.58333C8.66659 8.18166 9.15162 8.66667 9.74992 8.66667C10.3482 8.66667 10.8333 8.18166 10.8333 7.58333V6.5C10.8333 5.30335 11.8033 4.33333 12.9999 4.33333H18.9583C20.454 4.33333 21.6666 5.54591 21.6666 7.04167V18.9583C21.6666 20.4541 20.454 21.6667 18.9583 21.6667H12.9999C11.8033 21.6667 10.8333 20.6966 10.8333 19.5V18.4167C10.8333 17.8184 10.3482 17.3333 9.74992 17.3333C9.15162 17.3333 8.66659 17.8184 8.66659 18.4167V19.5ZM13.3172 17.016C13.7403 17.4391 14.4262 17.4391 14.8493 17.016L18.0993 13.766C18.5223 13.343 18.5223 12.657 18.0993 12.234L14.8493 8.98397C14.4262 8.56093 13.7403 8.56093 13.3172 8.98397C12.8942 9.40702 12.8942 10.093 13.3172 10.516L14.7179 11.9167H5.41659C4.81828 11.9167 4.33325 12.4017 4.33325 13C4.33325 13.5983 4.81828 14.0833 5.41659 14.0833H14.7179L13.3172 15.484C12.8942 15.907 12.8942 16.593 13.3172 17.016Z" fill="#CFB680"/>
</svg>
